<mxfile host="app.diagrams.net" agent="Mozilla/5.0 (Macintosh; Intel Mac OS X 10_15_7) AppleWebKit/537.36 (KHTML, like Gecko) Chrome/130.0.0.0 Safari/537.36" version="24.8.6">
  <diagram name="Page-1" id="RNAxcMaObpMvCpJvmaSs">
    <mxGraphModel dx="954" dy="1808" grid="1" gridSize="10" guides="1" tooltips="1" connect="1" arrows="1" fold="1" page="1" pageScale="1" pageWidth="827" pageHeight="1169" math="0" shadow="0">
      <root>
        <mxCell id="0" />
        <mxCell id="1" parent="0" />
        <mxCell id="QwP8r4sqQR2_y0_fP2AE-2" value="" style="swimlane;startSize=0;" vertex="1" parent="1">
          <mxGeometry x="280" y="240" width="434" height="310" as="geometry" />
        </mxCell>
        <mxCell id="QwP8r4sqQR2_y0_fP2AE-1" value="" style="rounded=0;whiteSpace=wrap;html=1;" vertex="1" parent="QwP8r4sqQR2_y0_fP2AE-2">
          <mxGeometry x="-166" y="-250" width="600" height="560" as="geometry" />
        </mxCell>
      </root>
    </mxGraphModel>
  </diagram>
</mxfile>
